<?xml version="1.0" encoding="utf-8"?>
<!-- Generator: Adobe Illustrator 18.0.0, SVG Export Plug-In . SVG Version: 6.00 Build 0)  -->
<!DOCTYPE svg PUBLIC "-//W3C//DTD SVG 1.1//EN" "http://www.w3.org/Graphics/SVG/1.1/DTD/svg11.dtd">
<svg version="1.1" id="Layer_1" xmlns="http://www.w3.org/2000/svg" xmlns:xlink="http://www.w3.org/1999/xlink" x="0px" y="0px"
	 viewBox="0 0 100 100" enable-background="new 0 0 100 100" xml:space="preserve">
<g>
	<path d="M50,3.9c25.4,0,46.1,20.7,46.1,46.1S75.4,96.1,50,96.1S3.9,75.4,3.9,50S24.6,3.9,50,3.9 M50,0.9C22.9,0.9,0.9,22.9,0.9,50
		s22,49.1,49.1,49.1s49.1-22,49.1-49.1S77.1,0.9,50,0.9L50,0.9z"/>
</g>
<g>
	<path fill="#FFFFFF" stroke="#000000" stroke-width="2.5698" stroke-linecap="round" stroke-miterlimit="10" d="M32.8,39"/>
	
		<polyline fill="none" stroke="#000000" stroke-width="2.57" stroke-linecap="round" stroke-linejoin="round" stroke-miterlimit="10" points="
		71.5,67.5 28.5,67.5 28.5,38.6 	"/>
	
		<polyline fill="none" stroke="#000000" stroke-width="2.57" stroke-linecap="round" stroke-linejoin="round" stroke-miterlimit="10" points="
		28.5,38.6 71.5,38.6 71.5,67.5 	"/>
	
		<circle fill="none" stroke="#000000" stroke-width="2.57" stroke-linecap="round" stroke-linejoin="round" stroke-miterlimit="10" cx="49.7" cy="52.8" r="5.6"/>
	
		<rect x="56.8" y="32.5" fill="none" stroke="#000000" stroke-width="2.57" stroke-linecap="round" stroke-linejoin="round" stroke-miterlimit="10" width="9.8" height="5.5"/>
</g>
</svg>
