<?xml version="1.0" encoding="utf-8"?>
<!-- Generator: Adobe Illustrator 18.0.0, SVG Export Plug-In . SVG Version: 6.00 Build 0)  -->
<!DOCTYPE svg PUBLIC "-//W3C//DTD SVG 1.1//EN" "http://www.w3.org/Graphics/SVG/1.1/DTD/svg11.dtd">
<svg version="1.1" id="Layer_1" xmlns="http://www.w3.org/2000/svg" xmlns:xlink="http://www.w3.org/1999/xlink" x="0px" y="0px"
	 viewBox="0 0 50 50" enable-background="new 0 0 50 50" xml:space="preserve">
<g>
	<path fill="#FFFFFF" stroke="#000000" stroke-width="2.8282" stroke-miterlimit="10" d="M42.9,46.1H7.1c-1.1,0-2-0.9-2-2V6.4
		c0-1.1,0.9-2,2-2h35.8c1.1,0,2,0.9,2,2v37.7C44.9,45.2,44,46.1,42.9,46.1z"/>
	<path d="M39.1,16.9H21.8c-0.8,0-1.4-0.6-1.4-1.4V5.3c0-0.8,0.6-1.4,1.4-1.4h17.3c0.8,0,1.4,0.6,1.4,1.4v10.2
		C40.4,16.3,39.8,16.9,39.1,16.9z"/>
	<path d="M37.2,46.1H12.8c-0.5,0-0.9-0.4-0.9-0.9V30.5c0-0.5,0.4-0.9,0.9-0.9h24.4c0.5,0,0.9,0.4,0.9,0.9v14.7
		C38.1,45.7,37.7,46.1,37.2,46.1z"/>
	<path fill="#FFFFFF" stroke="#000000" stroke-width="1.0223" stroke-miterlimit="10" d="M37,14h-6.3c-0.5,0-0.9-0.4-0.9-0.9V5.2
		c0-0.5,0.4-0.9,0.9-0.9H37c0.5,0,0.9,0.4,0.9,0.9v7.9C37.9,13.6,37.5,14,37,14z"/>
</g>
</svg>
