<?xml version="1.0" encoding="utf-8"?>
<!-- Generator: Adobe Illustrator 18.0.0, SVG Export Plug-In . SVG Version: 6.00 Build 0)  -->
<!DOCTYPE svg PUBLIC "-//W3C//DTD SVG 1.1//EN" "http://www.w3.org/Graphics/SVG/1.1/DTD/svg11.dtd">
<svg version="1.1" id="Layer_1" xmlns="http://www.w3.org/2000/svg" xmlns:xlink="http://www.w3.org/1999/xlink" x="0px" y="0px"
	 viewBox="0 0 50 50" enable-background="new 0 0 50 50" xml:space="preserve">
<g>
	<path fill="#FFFFFF" stroke="#000000" stroke-width="2.6976" stroke-miterlimit="10" d="M37.7,45.9H12.3c-1.1,0-2-0.9-2-2V15.7
		c0-1.1,0.9-2,2-2h25.5c1.1,0,2,0.9,2,2v28.2C39.8,45,38.9,45.9,37.7,45.9z"/>
	<g>
		
			<line fill="none" stroke="#000000" stroke-width="1.547" stroke-linecap="round" stroke-miterlimit="10" x1="16.6" y1="13.7" x2="16.6" y2="40.5"/>
		
			<line fill="none" stroke="#000000" stroke-width="1.547" stroke-linecap="round" stroke-miterlimit="10" x1="20.8" y1="13.7" x2="20.8" y2="40.5"/>
		
			<line fill="none" stroke="#000000" stroke-width="1.547" stroke-linecap="round" stroke-miterlimit="10" x1="25" y1="13.7" x2="25" y2="40.5"/>
		
			<line fill="none" stroke="#000000" stroke-width="1.547" stroke-linecap="round" stroke-miterlimit="10" x1="29.2" y1="13.7" x2="29.2" y2="40.5"/>
		
			<line fill="none" stroke="#000000" stroke-width="1.547" stroke-linecap="round" stroke-miterlimit="10" x1="33.4" y1="13.7" x2="33.4" y2="40.5"/>
	</g>
	<path d="M44.1,11.2l-7.9-0.6c-1,0-1.9-0.5-2.5-1.3l-3-3.9c-0.6-0.8-1.5-1.3-2.5-1.3h-6.4c-1,0-2,0.5-2.6,1.4l-2.4,3.6
		c-0.6,0.9-1.6,1.4-2.6,1.4l-8.3,0.6c-0.4,0-0.7,0.4-0.7,1V15c0,0.5,0.3,1,0.7,1h38.2c0.4,0,0.7-0.4,0.7-1v-2.9
		C44.8,11.6,44.5,11.2,44.1,11.2z M20.4,9.6l1.1-2.4C21.5,7.1,21.7,7,21.8,7h6.7c0.1,0,0.2,0.1,0.3,0.2l1.1,2.4
		C30,9.8,29.8,10,29.6,10h-8.9C20.5,10,20.3,9.8,20.4,9.6z"/>
</g>
</svg>
